<svg width="110" height="164" viewBox="0 0 110 164" fill="none" xmlns="http://www.w3.org/2000/svg">
<g clip-path="url(#clip0_522_3040)">
<rect width="110" height="164" rx="6" fill="#BE123C"/>
<rect y="-2" width="11" height="11" fill="#9F1239"/>
<rect x="22" y="-2" width="11" height="11" fill="#9F1239"/>
<rect x="44" y="-2" width="11" height="11" fill="#9F1239"/>
<rect x="66" y="-2" width="11" height="11" fill="#9F1239"/>
<rect x="88" y="-2" width="11" height="11" fill="#9F1239"/>
<rect x="11" y="9" width="11" height="11" fill="#9F1239"/>
<rect x="33" y="9" width="11" height="11" fill="#9F1239"/>
<rect x="55" y="9" width="11" height="11" fill="#9F1239"/>
<rect x="77" y="9" width="11" height="11" fill="#9F1239"/>
<rect x="99" y="9" width="11" height="11" fill="#9F1239"/>
<rect y="20" width="11" height="11" fill="#9F1239"/>
<rect x="22" y="20" width="11" height="11" fill="#9F1239"/>
<rect x="44" y="20" width="11" height="11" fill="#9F1239"/>
<rect x="66" y="20" width="11" height="11" fill="#9F1239"/>
<rect x="88" y="20" width="11" height="11" fill="#9F1239"/>
<rect x="11" y="31" width="11" height="11" fill="#9F1239"/>
<rect x="33" y="31" width="11" height="11" fill="#9F1239"/>
<rect x="55" y="31" width="11" height="11" fill="#9F1239"/>
<rect x="77" y="31" width="11" height="11" fill="#9F1239"/>
<rect x="99" y="31" width="11" height="11" fill="#9F1239"/>
<rect y="42" width="11" height="11" fill="#9F1239"/>
<rect x="22" y="42" width="11" height="11" fill="#9F1239"/>
<rect x="44" y="42" width="11" height="11" fill="#9F1239"/>
<rect x="66" y="42" width="11" height="11" fill="#9F1239"/>
<rect x="88" y="42" width="11" height="11" fill="#9F1239"/>
<rect x="11" y="53" width="11" height="11" fill="#9F1239"/>
<rect x="33" y="53" width="11" height="11" fill="#9F1239"/>
<rect x="55" y="53" width="11" height="11" fill="#9F1239"/>
<rect x="77" y="53" width="11" height="11" fill="#9F1239"/>
<rect x="99" y="53" width="11" height="11" fill="#9F1239"/>
<rect y="64" width="11" height="11" fill="#9F1239"/>
<rect x="22" y="64" width="11" height="11" fill="#9F1239"/>
<rect x="44" y="64" width="11" height="11" fill="#9F1239"/>
<rect x="66" y="64" width="11" height="11" fill="#9F1239"/>
<rect x="88" y="64" width="11" height="11" fill="#9F1239"/>
<rect x="11" y="75" width="11" height="11" fill="#9F1239"/>
<rect x="33" y="75" width="11" height="11" fill="#9F1239"/>
<rect x="55" y="75" width="11" height="11" fill="#9F1239"/>
<rect x="77" y="75" width="11" height="11" fill="#9F1239"/>
<rect x="99" y="75" width="11" height="11" fill="#9F1239"/>
<rect y="86" width="11" height="11" fill="#9F1239"/>
<rect x="22" y="86" width="11" height="11" fill="#9F1239"/>
<rect x="44" y="86" width="11" height="11" fill="#9F1239"/>
<rect x="66" y="86" width="11" height="11" fill="#9F1239"/>
<rect x="88" y="86" width="11" height="11" fill="#9F1239"/>
<rect x="11" y="97" width="11" height="11" fill="#9F1239"/>
<rect x="33" y="97" width="11" height="11" fill="#9F1239"/>
<rect x="55" y="97" width="11" height="11" fill="#9F1239"/>
<rect x="77" y="97" width="11" height="11" fill="#9F1239"/>
<rect x="99" y="97" width="11" height="11" fill="#9F1239"/>
<rect y="108" width="11" height="11" fill="#9F1239"/>
<rect x="22" y="108" width="11" height="11" fill="#9F1239"/>
<rect x="44" y="108" width="11" height="11" fill="#9F1239"/>
<rect x="66" y="108" width="11" height="11" fill="#9F1239"/>
<rect x="88" y="108" width="11" height="11" fill="#9F1239"/>
<rect x="11" y="119" width="11" height="11" fill="#9F1239"/>
<rect x="33" y="119" width="11" height="11" fill="#9F1239"/>
<rect x="55" y="119" width="11" height="11" fill="#9F1239"/>
<rect x="77" y="119" width="11" height="11" fill="#9F1239"/>
<rect x="99" y="119" width="11" height="11" fill="#9F1239"/>
<rect y="130" width="11" height="11" fill="#9F1239"/>
<rect x="22" y="130" width="11" height="11" fill="#9F1239"/>
<rect x="44" y="130" width="11" height="11" fill="#9F1239"/>
<rect x="66" y="130" width="11" height="11" fill="#9F1239"/>
<rect x="88" y="130" width="11" height="11" fill="#9F1239"/>
<rect x="11" y="141" width="11" height="11" fill="#9F1239"/>
<rect x="33" y="141" width="11" height="11" fill="#9F1239"/>
<rect x="55" y="141" width="11" height="11" fill="#9F1239"/>
<rect x="77" y="141" width="11" height="11" fill="#9F1239"/>
<rect x="99" y="141" width="11" height="11" fill="#9F1239"/>
<rect y="152" width="11" height="11" fill="#9F1239"/>
<rect x="22" y="152" width="11" height="11" fill="#9F1239"/>
<rect x="44" y="152" width="11" height="11" fill="#9F1239"/>
<rect x="66" y="152" width="11" height="11" fill="#9F1239"/>
<rect x="88" y="152" width="11" height="11" fill="#9F1239"/>
<rect x="11" y="163" width="11" height="11" fill="#9F1239"/>
<rect x="33" y="163" width="11" height="11" fill="#9F1239"/>
<rect x="55" y="163" width="11" height="11" fill="#9F1239"/>
<rect x="77" y="163" width="11" height="11" fill="#9F1239"/>
<rect x="99" y="163" width="11" height="11" fill="#9F1239"/>
<g filter="url(#filter0_i_522_3040)">
<circle cx="55" cy="82" r="25.5" fill="#BE123C" fill-opacity="0.7" stroke="white"/>
<g clip-path="url(#clip1_522_3040)">
<path d="M47.1851 80.3136V79.4386C47.1988 79.1123 47.0889 78.8009 46.8692 78.5784C46.6494 78.3559 46.361 78.2373 46.0589 78.2521H45.3309V79.1716H45.9627C46.155 79.1568 46.3061 79.3199 46.3198 79.5127C46.3198 79.5275 46.3198 79.5424 46.3198 79.5572V80.5212C46.3061 80.7881 46.4022 81.0403 46.567 81.2182C46.7456 81.3962 46.9791 81.5 47.2126 81.5445C46.9791 81.5742 46.7456 81.6928 46.567 81.8559C46.4022 82.0487 46.3061 82.3009 46.3198 82.553V83.517C46.3335 83.7246 46.1825 83.8877 46.0039 83.9025C45.9902 83.9025 45.9765 83.9025 45.9627 83.9025H45.3309V84.822H46.0589C46.361 84.8369 46.6494 84.7182 46.8692 84.4958C47.0752 84.2733 47.1988 83.947 47.1851 83.6356V82.7754C47.1851 82.3009 47.4186 82.0191 47.9267 82.0191V81.0699C47.4186 81.0699 47.1851 80.7881 47.1851 80.3136Z" fill="white"/>
<path d="M35.5932 80.5212V79.5572C35.5795 79.3496 35.7305 79.1864 35.9091 79.1716C35.9228 79.1716 35.9366 79.1716 35.9503 79.1716H36.5821V78.2521H35.8542C35.552 78.2373 35.2636 78.3559 35.0438 78.5784C34.8378 78.8009 34.7279 79.1123 34.7417 79.4386V80.3136C34.7417 80.7881 34.5082 81.0699 34 81.0699V82.0191C34.4944 82.0191 34.7417 82.3009 34.7417 82.7754V83.6356C34.7279 83.9619 34.8378 84.2733 35.0438 84.4958C35.2636 84.7182 35.5657 84.8369 35.8679 84.822H36.5958V83.9025H35.9503C35.758 83.9174 35.6069 83.7542 35.5932 83.5614C35.5932 83.5466 35.5932 83.5318 35.5932 83.517V82.5678C35.6069 82.3009 35.5245 82.0487 35.346 81.8559C35.1674 81.678 34.9339 81.5742 34.7005 81.5297C34.9477 81.5 35.1674 81.3814 35.346 81.2182C35.5245 81.0254 35.6069 80.7733 35.5932 80.5212Z" fill="white"/>
<path opacity="0.9" d="M37.2001 80.6695L40.9634 84.9555V80.6695H37.2001Z" fill="white"/>
<path d="M40.9634 78.3411H38.2714L37.2001 80.6695H40.9634V78.3411Z" fill="white"/>
<path opacity="0.9" d="M44.7129 80.6695L43.6416 78.3411H40.9634V80.6695H44.7129Z" fill="white"/>
<path d="M40.9634 80.6695V84.9555L44.7129 80.6695H40.9634Z" fill="white"/>
<path d="M49.4238 83.4725H50.6599L50.9621 81.7966H49.7946V80.714H51.1269L51.3329 79.5275H49.6573V78.4746H55.3296V79.5275H52.4454L52.2531 80.714H54.6978V83.4725H55.5356V84.4958H49.4375V83.4725H49.4238ZM53.6128 81.7818H52.0608L51.7861 83.4576H53.6265V81.7818H53.6128Z" fill="white"/>
<path d="M57.6095 84.7776H56.6756V81.9301C56.6344 82.0042 56.5657 82.1081 56.4696 82.2564C56.3734 82.4047 56.2773 82.5085 56.2361 82.5826C56.2086 82.4047 56.1949 82.1822 56.1674 81.9004C56.14 81.5445 56.0988 81.2776 56.0713 81.0699C56.5108 80.1356 56.813 79.1864 57.019 78.1335L58.0353 78.4153C57.9254 78.9195 57.7606 79.4237 57.5958 79.8983L57.6095 84.7776ZM62.0046 79.7797H60.9882L61.6337 80.0021C61.6063 80.0763 61.5376 80.1801 61.4415 80.3284C61.3453 80.5064 61.3041 80.6102 61.2354 80.6843H62.1831V81.5593H57.8293V80.6843H58.7632L58.3924 80.0763L58.9693 79.7797H58.0628V78.8898H59.5461V78.1631H60.5213V78.8898H62.0046V79.7797ZM59.1341 84.7479H58.1589V81.9894H61.9222V84.7479H60.947V84.4513H59.1341V84.7479ZM59.1341 82.8941V83.6208H60.947V82.8941H59.1341ZM59.8071 80.4322L59.3676 80.6843H60.2328C60.4251 80.3581 60.5625 80.0615 60.6449 79.7797H59.3401C59.5049 80.0021 59.656 80.2246 59.8071 80.4322Z" fill="white"/>
<path d="M62.8286 82.7903H65.7129L66.0837 82.4936H64.1059V81.7373H67.6357V82.3898L67.0589 82.7606H68.8993V83.5911H66.6468V83.8729C66.6468 84.4068 66.3859 84.6737 65.8777 84.7034C65.7678 84.7034 65.5481 84.7034 65.2459 84.7034C64.9163 84.7331 64.6828 84.7331 64.5455 84.7331C64.4493 84.2881 64.4081 84.0064 64.3532 83.9322C64.4493 83.9619 64.7515 83.9619 65.2871 83.9619C65.5206 83.9619 65.6305 83.8581 65.6167 83.6801V83.6059H62.8286V82.7903ZM66.3309 78.089L66.743 78.4894C66.6056 78.5932 66.4683 78.7119 66.3447 78.8157C66.4545 78.8898 66.6056 78.9937 66.743 79.0975L66.482 79.4237L66.743 79.6759C66.7155 79.7055 66.6468 79.7797 66.5369 79.8538C66.4408 79.9576 66.3996 80.0021 66.3309 80.0614C66.4408 80.1653 66.5919 80.2691 66.7704 80.3581L66.4408 80.803H67.5396V80.5212H66.8254V79.9873H67.567V79.7352H66.8254V79.2161H67.5945V78.9492H66.7155V78.2966H68.5559L68.446 80.803H68.7757V82.2415H67.8692V81.4852H63.8038V82.2415H62.8973V80.803H63.172L63.0759 78.3856C63.7763 78.2818 64.312 78.178 64.6828 78.089L64.9163 78.8602C64.6828 78.9047 64.3806 78.964 64.0373 79.0381V79.2458H64.8064V79.75H64.1059V80.0021H64.8476V80.5212H64.1334V80.803H65.1772C65.1498 80.7733 65.136 80.6992 65.0811 80.625C64.985 80.447 64.9438 80.3432 64.8751 80.2987C65.0674 80.1949 65.2047 80.1208 65.3146 80.0466C65.2734 80.017 65.2047 79.9428 65.0811 79.8687C65.0124 79.8242 64.9712 79.7648 64.8888 79.75L65.1223 79.4979C65.0262 79.3941 64.93 79.2458 64.8476 79.1271C64.8888 79.0975 64.985 79.053 65.1086 79.0085C65.2047 78.9343 65.3008 78.8898 65.3421 78.8898C65.3008 78.8602 65.2322 78.786 65.136 78.7119C65.0399 78.6674 64.9438 78.6081 64.9025 78.5932L65.2322 78.1928C65.3421 78.2373 65.5069 78.3411 65.7266 78.4894C65.7678 78.5191 65.8228 78.5636 65.8365 78.5636C65.8777 78.5191 65.9738 78.4449 66.0974 78.3411C66.2211 78.1928 66.2897 78.1187 66.3309 78.089ZM65.8777 80.4322C65.7129 80.5509 65.5343 80.6843 65.3421 80.7881H66.2897C66.2485 80.7436 66.1524 80.6695 66.0288 80.5657C65.9601 80.5212 65.8914 80.4767 65.8777 80.4322ZM65.8777 79.2161C65.7816 79.2606 65.6717 79.3348 65.5069 79.4386C65.5755 79.4682 65.6442 79.5424 65.7678 79.6165C65.809 79.6462 65.864 79.6907 65.8777 79.6907C65.9189 79.661 65.9876 79.6165 66.0837 79.5127C66.1249 79.4831 66.1799 79.4386 66.1799 79.4386C66.1524 79.4089 66.0837 79.3644 66.0425 79.3348C65.9464 79.2754 65.8914 79.2458 65.8777 79.2161Z" fill="white"/>
<path d="M71.3577 81.0996C71.6324 81.5742 71.7698 82.0784 71.7698 82.6123C71.7972 83.4131 71.5637 83.8432 71.0693 83.9174C71.0418 83.9174 71.0418 83.9174 71.0281 83.947C70.932 83.9767 70.8358 83.9767 70.7534 83.9767L70.5199 83.25V84.7627H69.7096V78.3856H71.7148V79.3941L71.3577 81.0996ZM70.5199 79.3941V82.8941H70.7122C70.877 82.9237 70.9732 82.7458 70.9732 82.3602C70.9732 82.0636 70.8633 81.6631 70.6023 81.1737L70.9457 79.4237L70.5199 79.3941ZM74.8738 82.7606C75.1347 82.8644 75.3819 82.9682 75.6154 83.0572C75.6154 83.0869 75.6154 83.1314 75.5879 83.1759C75.5605 83.5763 75.5193 83.8581 75.4781 84.0064C75.4506 84.4364 75.1759 84.6292 74.6677 84.6292H74.4617C73.8986 84.6589 73.6239 84.3771 73.6239 83.8581V82.4195H73.2943C73.3218 83.4725 72.8823 84.2585 71.962 84.8072C71.9208 84.7331 71.7972 84.5996 71.6324 84.4364C71.4951 84.2288 71.3715 84.0805 71.3028 84.036C72.0719 83.7098 72.4428 83.1759 72.3741 82.4492H71.7698V81.5H75.5193V82.4343H74.5167V83.6208C74.5167 83.7246 74.5441 83.7987 74.5853 83.7987H74.6265C74.7227 83.7987 74.7364 83.7246 74.7364 83.5911C74.8463 83.3835 74.8738 83.1165 74.8738 82.7606ZM74.0634 78.1187V78.8009H75.5055V80.3136H75.1759V81.1144H72.1543V80.3136H71.811V78.8009H73.0883V78.1187H74.0634ZM72.69 79.75V80.2246H74.6265V79.75H72.69Z" fill="white"/>
</g>
</g>
</g>
<defs>
<filter id="filter0_i_522_3040" x="29" y="56" width="52" height="52" filterUnits="userSpaceOnUse" color-interpolation-filters="sRGB">
<feFlood flood-opacity="0" result="BackgroundImageFix"/>
<feBlend mode="normal" in="SourceGraphic" in2="BackgroundImageFix" result="shape"/>
<feColorMatrix in="SourceAlpha" type="matrix" values="0 0 0 0 0 0 0 0 0 0 0 0 0 0 0 0 0 0 127 0" result="hardAlpha"/>
<feOffset/>
<feGaussianBlur stdDeviation="2"/>
<feComposite in2="hardAlpha" operator="arithmetic" k2="-1" k3="1"/>
<feColorMatrix type="matrix" values="0 0 0 0 0 0 0 0 0 0 0 0 0 0 0 0 0 0 0.25 0"/>
<feBlend mode="normal" in2="shape" result="effect1_innerShadow_522_3040"/>
</filter>
<clipPath id="clip0_522_3040">
<rect width="110" height="164" rx="6" fill="white"/>
</clipPath>
<clipPath id="clip1_522_3040">
<rect width="42" height="7" fill="white" transform="translate(34 78)"/>
</clipPath>
</defs>
</svg>
